<?xml version="1.0" standalone="no"?>
<!DOCTYPE svg PUBLIC "-//W3C//DTD SVG 20010904//EN"
 "http://www.w3.org/TR/2001/REC-SVG-20010904/DTD/svg10.dtd">
<svg version="1.0" xmlns="http://www.w3.org/2000/svg"
 width="512.000000pt" height="512.000000pt" viewBox="0 0 512.000000 512.000000"
 preserveAspectRatio="xMidYMid meet">

<g transform="translate(0.000000,512.000000) scale(0.100000,-0.100000)"
fill="#000000" stroke="none">
<path d="M2410 2364 c-180 -38 -366 -185 -449 -354 -94 -193 -95 -407 -2 -595
248 -500 953 -500 1202 0 95 191 92 416 -8 608 -56 108 -182 231 -293 286
-140 68 -299 88 -450 55z m27 -385 c15 -5 49 -31 75 -56 l47 -47 54 51 c30 29
67 54 85 58 73 16 153 -64 137 -137 -4 -18 -29 -55 -58 -85 l-50 -53 50 -53
c55 -58 70 -98 53 -143 -16 -41 -37 -61 -77 -75 -49 -16 -78 -5 -139 53 l-54
51 -54 -51 c-61 -58 -90 -69 -139 -53 -40 14 -61 34 -77 75 -17 45 -2 85 53
143 l50 53 -50 53 c-29 30 -54 67 -58 85 -9 45 20 102 65 124 41 21 49 22 87
7z"/>
</g>
</svg>
